<svg width="40" height="40" viewBox="0 0 40 40" fill="none" xmlns="http://www.w3.org/2000/svg">
<path d="M23.3333 14.6666C23.3333 14.5 23.3889 14.3402 23.5 14.1875C23.6111 14.0347 23.7361 13.9305 23.875 13.875C24.7083 13.5694 25.5625 13.3333 26.4375 13.1666C27.3125 13 28.2222 12.9166 29.1667 12.9166C29.7778 12.9166 30.375 12.9513 30.9583 13.0208C31.5417 13.0902 32.1111 13.1944 32.6667 13.3333C32.8333 13.3888 32.9861 13.493 33.125 13.6458C33.2639 13.7986 33.3333 13.9722 33.3333 14.1666C33.3333 14.4722 33.2292 14.7083 33.0208 14.875C32.8125 15.0416 32.5556 15.0833 32.25 15C31.7778 14.8611 31.2847 14.7569 30.7708 14.6875C30.257 14.618 29.7222 14.5833 29.1667 14.5833C28.3611 14.5833 27.5833 14.6597 26.8333 14.8125C26.0833 14.9652 25.3472 15.1944 24.625 15.5C24.2361 15.6388 23.9236 15.6319 23.6875 15.4791C23.4514 15.3263 23.3333 15.0555 23.3333 14.6666ZM23.3333 23.8333C23.3333 23.6666 23.3889 23.5 23.5 23.3333C23.6111 23.1666 23.7361 23.0555 23.875 23C24.7083 22.6944 25.5625 22.4652 26.4375 22.3125C27.3125 22.1597 28.2222 22.0833 29.1667 22.0833C29.7778 22.0833 30.375 22.118 30.9583 22.1875C31.5417 22.2569 32.1111 22.3611 32.6667 22.5C32.8333 22.5555 32.9861 22.6597 33.125 22.8125C33.2639 22.9652 33.3333 23.1388 33.3333 23.3333C33.3333 23.6388 33.2292 23.875 33.0208 24.0416C32.8125 24.2083 32.5556 24.25 32.25 24.1666C31.7778 24.0277 31.2847 23.9236 30.7708 23.8541C30.257 23.7847 29.7222 23.75 29.1667 23.75C28.3611 23.75 27.5833 23.8194 26.8333 23.9583C26.0833 24.0972 25.3472 24.3194 24.625 24.625C24.2361 24.7638 23.9236 24.7638 23.6875 24.625C23.4514 24.4861 23.3333 24.2222 23.3333 23.8333ZM23.3333 19.25C23.3333 19.0833 23.3889 18.9236 23.5 18.7708C23.6111 18.618 23.7361 18.5138 23.875 18.4583C24.7083 18.1527 25.5625 17.9166 26.4375 17.75C27.3125 17.5833 28.2222 17.5 29.1667 17.5C29.7778 17.5 30.375 17.5347 30.9583 17.6041C31.5417 17.6736 32.1111 17.7777 32.6667 17.9166C32.8333 17.9722 32.9861 18.0763 33.125 18.2291C33.2639 18.3819 33.3333 18.5555 33.3333 18.75C33.3333 19.0555 33.2292 19.2916 33.0208 19.4583C32.8125 19.625 32.5556 19.6666 32.25 19.5833C31.7778 19.4444 31.2847 19.3402 30.7708 19.2708C30.257 19.2013 29.7222 19.1666 29.1667 19.1666C28.3611 19.1666 27.5833 19.243 26.8333 19.3958C26.0833 19.5486 25.3472 19.7777 24.625 20.0833C24.2361 20.2222 23.9236 20.2152 23.6875 20.0625C23.4514 19.9097 23.3333 19.6388 23.3333 19.25ZM10.3333 27.5C11.8333 27.5 13.2847 27.6736 14.6875 28.0208C16.0903 28.368 17.4722 28.8888 18.8333 29.5833V11.7916C17.5833 10.9583 16.2292 10.3125 14.7708 9.85413C13.3125 9.39579 11.8333 9.16663 10.3333 9.16663C9.27778 9.16663 8.24306 9.29857 7.22917 9.56246C6.21528 9.82635 5.19445 10.1527 4.16667 10.5416V28.625C5.02778 28.2361 6.00695 27.9513 7.10417 27.7708C8.20139 27.5902 9.27778 27.5 10.3333 27.5ZM21.3333 29.5833C22.7222 28.8888 24.0833 28.368 25.4167 28.0208C26.75 27.6736 28.1667 27.5 29.6667 27.5C30.7222 27.5 31.8125 27.5833 32.9375 27.75C34.0625 27.9166 35.0278 28.1388 35.8333 28.4166V10.5416C34.8889 10.0694 33.8889 9.72218 32.8333 9.49996C31.7778 9.27774 30.7222 9.16663 29.6667 9.16663C28.1667 9.16663 26.7153 9.39579 25.3125 9.85413C23.9097 10.3125 22.5833 10.9583 21.3333 11.7916V29.5833ZM20.0833 32.875C19.8611 32.875 19.6597 32.8541 19.4792 32.8125C19.2986 32.7708 19.1389 32.6944 19 32.5833C17.6945 31.7777 16.3056 31.1527 14.8333 30.7083C13.3611 30.2638 11.8611 30.0416 10.3333 30.0416C9.30556 30.0416 8.30556 30.1666 7.33334 30.4166C6.36112 30.6666 5.38889 30.9722 4.41667 31.3333C3.77778 31.6388 3.15973 31.5972 2.56251 31.2083C1.96528 30.8194 1.66667 30.2638 1.66667 29.5416V10.25C1.66667 9.83329 1.76389 9.45135 1.95834 9.10413C2.15278 8.7569 2.44445 8.48607 2.83334 8.29163C4.00001 7.73607 5.21528 7.32635 6.47917 7.06246C7.74306 6.79857 9.02778 6.66663 10.3333 6.66663C12.0833 6.66663 13.7847 6.90274 15.4375 7.37496C17.0903 7.84718 18.6389 8.5694 20.0833 9.54163C21.5 8.5694 23.0208 7.84718 24.6458 7.37496C26.2708 6.90274 27.9445 6.66663 29.6667 6.66663C30.9722 6.66663 32.25 6.79857 33.5 7.06246C34.75 7.32635 35.9583 7.73607 37.125 8.29163C37.5139 8.48607 37.8125 8.7569 38.0208 9.10413C38.2292 9.45135 38.3333 9.83329 38.3333 10.25V29.5416C38.3333 30.3194 38.0208 30.9097 37.3958 31.3125C36.7708 31.7152 36.1528 31.7222 35.5417 31.3333C34.5972 30.9444 33.6389 30.6319 32.6667 30.3958C31.6945 30.1597 30.6945 30.0416 29.6667 30.0416C28.1667 30.0416 26.6945 30.2638 25.25 30.7083C23.8056 31.1527 22.4445 31.7777 21.1667 32.5833C21.0278 32.6944 20.8681 32.7708 20.6875 32.8125C20.507 32.8541 20.3056 32.875 20.0833 32.875Z" fill="url(#paint0_linear_11_60)"/>
<defs>
<linearGradient id="paint0_linear_11_60" x1="20" y1="6.66663" x2="20" y2="32.875" gradientUnits="userSpaceOnUse">
<stop stop-color="#B6F829"/>
<stop offset="1" stop-color="#67DD0A"/>
</linearGradient>
</defs>
</svg>
