<svg width="40" height="40" viewBox="0 0 40 40" fill="none" xmlns="http://www.w3.org/2000/svg">
<path d="M22.125 36.6667C21.4861 36.6667 21.0208 36.4584 20.7292 36.0417C20.4375 35.625 20.4028 35.1112 20.625 34.5L26.75 18.25C26.9167 17.8056 27.2222 17.4306 27.6667 17.125C28.1111 16.8195 28.5694 16.6667 29.0417 16.6667C29.5139 16.6667 29.9792 16.8195 30.4375 17.125C30.8958 17.4306 31.2083 17.8056 31.375 18.25L37.625 34.3334C37.875 34.9723 37.8472 35.5209 37.5417 35.9792C37.2361 36.4375 36.7222 36.6667 36 36.6667C35.6945 36.6667 35.4028 36.5695 35.125 36.375C34.8472 36.1806 34.6528 35.9306 34.5417 35.625L33.1667 31.4167H25.1667L23.5833 35.6667C23.4722 35.9445 23.2778 36.1806 23 36.375C22.7222 36.5695 22.4306 36.6667 22.125 36.6667ZM26.0833 28.5H32L29.0833 20.4167H29L26.0833 28.5ZM12.0417 14.25C12.4583 14.9723 12.9167 15.6737 13.4167 16.3542C13.9167 17.0348 14.4583 17.7362 15.0417 18.4584C16.2917 17.1528 17.3333 15.7987 18.1667 14.3959C19 12.9931 19.7083 11.5278 20.2917 10H3.33334C2.86112 10 2.46528 9.84032 2.14584 9.52087C1.82639 9.20143 1.66667 8.8056 1.66667 8.33337C1.66667 7.86115 1.82639 7.46532 2.14584 7.14587C2.46528 6.82643 2.86112 6.66671 3.33334 6.66671H13.3333V5.00004C13.3333 4.52782 13.4931 4.13198 13.8125 3.81254C14.1319 3.4931 14.5278 3.33337 15 3.33337C15.4722 3.33337 15.8681 3.4931 16.1875 3.81254C16.5069 4.13198 16.6667 4.52782 16.6667 5.00004V6.66671H26.6667C27.1389 6.66671 27.5347 6.82643 27.8542 7.14587C28.1736 7.46532 28.3333 7.86115 28.3333 8.33337C28.3333 8.8056 28.1736 9.20143 27.8542 9.52087C27.5347 9.84032 27.1389 10 26.6667 10H23.625C23.0139 11.9167 22.2014 13.7987 21.1875 15.6459C20.1736 17.4931 18.9306 19.25 17.4583 20.9167L21.5417 25.0417L20.2917 28.4167L15 23.3334L7.79167 30.5417C7.48612 30.8473 7.11112 31 6.66667 31C6.22223 31 5.84723 30.8334 5.54167 30.5C5.20834 30.1945 5.04167 29.8195 5.04167 29.375C5.04167 28.9306 5.20834 28.5417 5.54167 28.2084L12.875 20.875C12.1528 20.0139 11.4722 19.1459 10.8333 18.2709C10.1944 17.3959 9.61112 16.5 9.08334 15.5834C8.75 14.9723 8.72223 14.4445 9.00001 14C9.27778 13.5556 9.77778 13.3334 10.5 13.3334C10.8056 13.3334 11.1042 13.4237 11.3958 13.6042C11.6875 13.7848 11.9028 14 12.0417 14.25Z" fill="url(#paint0_linear_11_62)"/>
<defs>
<linearGradient id="paint0_linear_11_62" x1="19.7302" y1="3.33337" x2="19.7302" y2="36.6667" gradientUnits="userSpaceOnUse">
<stop stop-color="#B6F829"/>
<stop offset="1" stop-color="#67DD0A"/>
</linearGradient>
</defs>
</svg>
